<svg xmlns="http://www.w3.org/2000/svg" viewBox="0 0 150 44" fill="none" stroke="#0C1D37" stroke-width="5.2" stroke-linecap="round" stroke-linejoin="round"><path d="M4 33V19M4 24c0-6 4-9 10-9s9 3 9 9v9"/><circle cx="42" cy="24" r="9.5"/><path d="M51.5 14v19"/><path d="M60 33V19M60 24c0-6 4-9 10-9s9 3 9 9v9"/><circle cx="97" cy="24" r="10"/><path d="M97 19.500c2.600 3 4 4.800 4 6.700a4 4 0 0 1-8 0c0-1.900 1.400-3.700 4-6.700z" fill="#1F5FD0" stroke="none"/><path d="M134 36V6L118 27h28" stroke="#1F5FD0" stroke-width="5.600"/></svg>
